# This file uses centimeters as units for non-parametric coordinates.

mtllib mysign.mtl
g default
v -2.351353 9.374652 0.472513
v 2.570363 9.374652 0.418583
v -2.351353 11.866742 0.452453
v 2.570363 11.866742 0.464672
v -2.351353 11.866742 -0.452453
v 2.570363 11.866742 -0.464672
v -2.351353 9.374652 -0.472513
v 2.570363 9.374652 -0.418583
v -0.968487 10.692332 0.524540
v -0.968487 10.692332 -0.524540
v 3.953230 10.692332 -0.464672
v 3.953230 10.692332 0.464672
v -2.849683 12.063724 0.358747
v -1.248206 10.703657 0.415905
v -2.849683 9.177670 0.374653
v 2.850083 9.177670 0.331892
v 4.451560 10.703657 0.368436
v 2.850083 12.063724 0.368436
v -2.849683 12.063724 -0.354917
v -1.248206 10.703657 -0.411464
v -2.849683 9.177670 -0.370653
v 2.850083 9.177670 -0.328349
v 4.451560 10.703657 -0.364502
v 2.850083 12.063724 -0.364502
v -2.703242 11.939357 -0.360088
v -2.682796 11.921993 0.364704
v -2.739766 9.282407 -0.373454
v -2.734281 9.287634 0.377626
v 2.933144 9.256818 0.333788
v 2.934167 9.257792 -0.330247
v 2.930979 11.995021 0.368436
v 2.931731 11.994384 -0.364502
v 2.679237 12.063723 0.368145
v 2.675138 12.063724 -0.364208
v 4.304910 10.828200 0.368436
v 4.314592 10.819977 -0.364502
v 4.268308 10.529044 0.364254
v 4.269058 10.529757 -0.360382
v -2.497763 9.177670 -0.368041
v -2.491187 9.177670 0.371963
v -2.516315 12.063724 -0.355478
v -2.518330 12.063724 0.359311
v 0.358777 -0.066047 0.285147
v 1.034661 -0.066047 0.285147
v 0.358777 12.707056 0.285147
v 1.034661 12.707056 0.285147
v 0.358777 12.707056 -0.285147
v 1.034661 12.707056 -0.285147
v 0.358777 -0.066047 -0.285147
v 1.034661 -0.066047 -0.285147
vt 0.944564 0.077468
vt 0.942647 0.545876
vt 0.816702 0.676973
vt 0.818620 0.208565
vt 0.707388 0.076497
vt 0.705470 0.544905
vt 0.686614 0.571450
vt 0.686681 0.555190
vt 0.688706 0.060529
vt 0.688835 0.028994
vt 0.822160 0.208565
vt 0.820242 0.676973
vt 0.946187 0.545876
vt 0.948105 0.077468
vt 0.963506 0.030118
vt 0.963366 0.064237
vt 0.961285 0.572574
vt 0.953720 0.580449
vt 0.832120 0.707023
vt 0.815430 0.724395
vt 0.817651 0.181939
vt 0.952995 0.041058
vt 0.702259 0.044932
vt 0.710928 0.076497
vt 0.709010 0.544905
vt 0.803634 0.710390
vt 0.693121 0.579176
vt 0.821191 0.181939
vt 0.704154 0.042979
vt 0.692375 0.028994
vt 0.967046 0.030118
vt 0.957035 0.040538
vt 0.964825 0.572574
vt 0.966908 0.063611
vt 0.818970 0.724395
vt 0.835591 0.707094
vt 0.957166 0.580546
vt 0.690154 0.571450
vt 0.696721 0.579247
vt 0.807953 0.711314
vt 0.692245 0.060721
vt 0.690222 0.554800
vt 0.643994 0.585589
vt 0.509884 0.582376
vt 0.510986 0.608600
vt 0.643037 0.608600
vt 0.646467 0.093965
vt 0.507493 0.094932
vt 0.500410 0.356943
vt 0.653500 0.356943
vt 0.341048 0.355173
vt 0.341822 0.322864
vt 0.475904 0.322996
vt 0.476666 0.355173
vt 0.341048 0.606830
vt 0.341048 0.594118
vt 0.476666 0.594000
vt 0.476666 0.606830
vt 0.645949 0.074585
vt 0.508043 0.074585
vt 0.470328 0.087640
vt 0.347459 0.087460
vt 0.347810 0.072815
vt 0.469976 0.072815
vt 0.341048 0.378218
vt 0.476666 0.376696
vt 0.297480 0.708247
vt 0.322811 0.708059
vt 0.323285 0.654792
vt 0.297480 0.654599
vt 0.321476 0.707154
vt 0.321331 0.655703
vt 0.695458 0.655067
vt 0.695163 0.707783
vt 0.707755 0.655046
vt 0.707755 0.707804
vt 0.707755 0.705202
vt 0.707755 0.657677
vt 0.297480 0.655744
vt 0.297480 0.707114
vt 0.150236 0.723276
vt 0.296036 0.723276
vt 0.296036 0.986541
vt 0.150236 0.986541
vt 0.032770 0.986541
vt 0.032770 0.723276
vt 0.559301 0.986541
vt 0.082244 0.287918
vt 0.266813 0.287918
vt 0.413501 0.986541
vt 0.413501 0.723276
vt 0.559301 0.723276
vt 0.266813 0.443652
vt 0.082244 0.443652
vn 0.011546 -0.049300 0.998717
vn 0.011546 -0.049300 0.998717
vn 0.008525 -0.010635 0.999907
vn 0.008354 -0.008450 0.999929
vn -0.001859 0.433457 0.901173
vn -0.001859 0.433457 0.901173
vn -0.001638 0.608342 0.793673
vn -0.000813 0.918937 0.394404
vn -0.000796 0.922489 0.386023
vn -0.001229 0.802996 0.595984
vn 0.008354 -0.008450 -0.999929
vn 0.008525 -0.010635 -0.999907
vn 0.011546 -0.049300 -0.998717
vn 0.011546 -0.049300 -0.998717
vn 0.005256 -0.816490 0.577336
vn 0.003514 -0.922470 0.386053
vn 0.000992 -0.994043 0.108980
vn 0.008227 -0.427935 0.903772
vn 0.008227 -0.427935 0.903772
vn 0.175433 -0.212048 0.961384
vn 0.234512 -0.273222 0.932927
vn 0.533706 -0.578045 0.617270
vn 0.543630 -0.587930 0.599003
vn 0.458909 -0.046478 0.887267
vn 0.182103 -0.005739 0.983263
vn -0.588398 0.599712 0.542341
vn -0.310399 0.296124 0.903307
vn -0.330326 0.038795 0.943070
vn -0.908152 0.023813 0.417963
vn -0.649885 0.670282 0.358291
vn -0.319516 -0.330952 0.887908
vn -0.609650 -0.698775 0.374220
vn -0.621933 -0.716177 0.316686
vn 0.004837 0.036366 -0.999327
vn 0.004837 0.036366 -0.999327
vn 0.530225 0.624339 0.573640
vn 0.523126 0.615981 0.588988
vn 0.237764 0.279967 0.930101
vn 0.180615 0.212674 0.960285
vn 0.004837 0.036366 0.999327
vn 0.004837 0.036366 0.999327
vn -0.620611 -0.714359 -0.323317
vn -0.609857 -0.699164 -0.373154
vn -0.649775 0.670212 -0.358620
vn -0.909542 0.023560 -0.414944
vn 0.005201 -0.818827 -0.574016
vn 0.003497 -0.922493 -0.385998
vn 0.545145 -0.589357 -0.596218
vn 0.463792 -0.046126 -0.884742
vn 0.524913 0.618085 -0.585181
vn 0.243934 0.287232 -0.926280
vn -0.000785 0.923949 -0.382516
vn -0.000800 0.920873 -0.389862
vn -0.342809 0.039615 -0.938570
vn -0.330054 -0.344023 -0.879041
vn -0.320842 0.307468 -0.895837
vn -0.589814 0.601394 -0.538929
vn 0.008127 -0.441897 -0.897029
vn 0.008127 -0.441897 -0.897029
vn 0.000990 -0.994013 -0.109254
vn 0.535950 -0.580201 -0.613290
vn 0.240814 -0.279606 -0.929424
vn 0.182305 -0.219045 -0.958532
vn 0.189408 -0.005419 -0.981884
vn 0.529198 0.623130 -0.575899
vn 0.187390 0.220651 -0.957182
vn -0.001215 0.805899 -0.592052
vn -0.001616 0.617251 -0.786765
vn -0.001836 0.447717 -0.894173
vn -0.001836 0.447717 -0.894173
vn 0.000000 0.000000 1.000000
vn 0.000000 0.000000 1.000000
vn 0.000000 0.000000 1.000000
vn 0.000000 0.000000 1.000000
vn 0.000000 1.000000 0.000000
vn 0.000000 1.000000 0.000000
vn 0.000000 1.000000 0.000000
vn 0.000000 1.000000 0.000000
vn 0.000000 0.000000 -1.000000
vn 0.000000 0.000000 -1.000000
vn 0.000000 0.000000 -1.000000
vn 0.000000 0.000000 -1.000000
vn 1.000000 0.000000 0.000000
vn 1.000000 0.000000 0.000000
vn 1.000000 0.000000 0.000000
vn 1.000000 0.000000 0.000000
vn -1.000000 -0.000000 0.000000
vn -1.000000 -0.000000 0.000000
vn -1.000000 -0.000000 0.000000
vn -1.000000 -0.000000 0.000000
s 1
g sign1
usemtl lambert3SG
f 1/1/1 2/2/2 12/3/3 9/4/4
s 2
f 3/5/5 4/6/6 18/7/7 33/8/8 42/9/9 13/10/10
s 3
f 10/11/11 11/12/12 8/13/13 7/14/14
s 4
f 15/15/15 40/16/16 16/17/17 2/2/18 1/1/19
s 5
f 2/2/20 16/17/21 29/18/22 37/19/23 17/20/24 12/3/25
s 6
f 15/15/26 1/1/27 9/4/28 14/21/29 28/22/30
f 14/21/29 9/4/28 3/5/31 13/10/32 26/23/33
s 3
f 5/24/34 6/25/35 11/12/12 10/11/11
s 5
f 12/3/25 17/20/24 35/26/36 31/27/37 18/7/38 4/6/39
s 1
f 9/4/4 12/3/3 4/6/40 3/5/41
s 6
f 25/43/42 26/44/33 13/45/32 19/46/43
f 27/47/44 28/48/30 14/49/29 20/50/45
s 4
f 21/67/46 39/68/47 40/69/16 15/70/15
s 5
f 17/51/24 37/52/23 38/53/48 23/54/49
f 18/55/38 31/56/37 32/57/50 24/58/51
s 2
f 41/71/52 42/72/9 33/73/8 34/74/53
s 6
f 10/11/54 20/28/45 25/29/42 19/30/43 5/24/55
f 7/14/56 21/31/57 27/32/44 20/28/45 10/11/54
s 4
f 7/14/58 8/13/59 22/33/60 39/34/47 21/31/46
s 5
f 23/35/49 38/36/48 30/37/61 22/33/62 8/13/63 11/12/64
f 24/38/51 32/39/50 36/40/65 23/35/49 11/12/64 6/25/66
s 2
f 19/30/67 41/41/52 34/42/53 24/38/68 6/25/69 5/24/70
s 6
f 20/50/45 14/49/29 26/44/33 25/43/42
f 21/59/57 15/60/26 28/48/30 27/47/44
s 5
f 30/61/61 29/62/22 16/63/21 22/64/62
f 32/57/50 31/56/37 35/65/36 36/66/65
s 2
f 34/74/53 33/73/8 18/75/7 24/76/68
s 5
f 36/66/65 35/65/36 17/51/24 23/54/49
f 38/53/48 37/52/23 29/62/22 30/61/61
s 4
f 40/69/16 39/68/47 22/77/60 16/78/17
s 2
f 13/79/10 42/72/9 41/71/52 19/80/67
s off
f 43/81/71 44/82/72 46/83/73 45/84/74
f 45/88/75 46/89/76 48/93/77 47/94/78
f 47/87/79 48/90/80 50/91/81 49/92/82
f 44/82/83 50/91/84 48/90/85 46/83/86
f 49/86/87 43/81/88 45/84/89 47/85/90
